# xmcd
#
# Track frame offsets:
#	150
#	11984
#	28655
#	42100
#	56582
#	67874
#	82972
#	98464
#	111429
#	124530
#	139694
#	156215
#	169869
#	183336
#	195463
#	207618
#	222072
#	233718
#	251470
#	262688
#	278874
#	292389
#	307272
#
# Disc length: 4337 seconds
#
# Revision: 0
# Processed by: cddbd v1.4PL0 Copyright (c) Steve Scherf et al.
# Submitted via: MusicWizard 6.0.0
#
DISCID=4910ef17
DTITLE=Johnny Cash - The Adventures Of Johnny Cash/ The Baron
DYEAR=1900
DGENRE=Country
TTITLE0=Georgia On A Fast Train
TTITLE1=John´s
TTITLE2=Fairweather Friends
TTITLE3=Paradise
TTITLE4=We Must Believe In Magic
TTITLE5=Only Love
TTITLE6=Good Ol´ American Guest
TTITLE7=I´ll Cross Over Jordan Someday
TTITLE8=Sing A Song
TTITLE9=Ain´t Gonna Hobo Nomore
TTITLE10=The Baron
TTITLE11=Mobile Bay
TTITLE12=The Hard Way
TTITLE13=A Ceiling, Four Walls And A Floor
TTITLE14=Hey, Hey Train
TTITLE15=The Reverend Mr. Black
TTITLE16=The Blues Keep Gettin´ Bluer
TTITLE17=Chattanooga City Limit Sign
TTITLE18=Thanks To You
TTITLE19=The Greatest Love Affair
TTITLE20=The Chicken In Black
TTITLE21=Cajun Born
TTITLE22=The Diplomat
EXTD=(c)1981 Columbia "The Adventures of Johnny Cash"\n(c)1982 Columbia "The Baron"
EXTT0=
EXTT1=
EXTT2=
EXTT3=
EXTT4=
EXTT5=
EXTT6=
EXTT7=
EXTT8=
EXTT9=
EXTT10=
EXTT11=
EXTT12=
EXTT13=
EXTT14=
EXTT15=
EXTT16=
EXTT17=
EXTT18=
EXTT19=
EXTT20=
EXTT21=
EXTT22=
PLAYORDER=
